<mxfile host="65bd71144e">
    <diagram id="zrw3Qm_dVd5Ozi2h2lEB" name="Page-1">
        <mxGraphModel dx="1276" dy="851" grid="1" gridSize="10" guides="1" tooltips="1" connect="1" arrows="1" fold="1" page="1" pageScale="1" pageWidth="1169" pageHeight="827" math="0" shadow="0">
            <root>
                <mxCell id="0"/>
                <mxCell id="1" parent="0"/>
                <mxCell id="36" style="edgeStyle=none;html=0;exitX=0.5;exitY=0;exitDx=0;exitDy=0;entryX=0.5;entryY=1;entryDx=0;entryDy=0;fontColor=#FFFFFF;strokeWidth=5;fillColor=#1ba1e2;strokeColor=#006EAF;" parent="1" source="3" target="4" edge="1">
                    <mxGeometry relative="1" as="geometry"/>
                </mxCell>
                <mxCell id="3" value="Time Server" style="rounded=1;fontSize=16;fillColor=#1ba1e2;fontColor=#ffffff;strokeColor=#006EAF;" parent="1" vertex="1">
                    <mxGeometry x="440" y="710" width="360" height="60" as="geometry"/>
                </mxCell>
                <mxCell id="28" value="" style="edgeStyle=none;exitX=0;exitY=0.5;exitDx=0;exitDy=0;entryX=1;entryY=1;entryDx=0;entryDy=0;strokeWidth=5;fontSize=16;fontColor=#000000;fillColor=#fa6800;strokeColor=#C73500;" parent="1" source="4" target="6" edge="1">
                    <mxGeometry relative="1" as="geometry"/>
                </mxCell>
                <mxCell id="29" value="" style="edgeStyle=none;exitX=1;exitY=0.5;exitDx=0;exitDy=0;entryX=0;entryY=1;entryDx=0;entryDy=0;strokeWidth=5;fontSize=16;fontColor=#000000;fillColor=#fa6800;strokeColor=#C73500;" parent="1" source="4" target="7" edge="1">
                    <mxGeometry relative="1" as="geometry"/>
                </mxCell>
                <mxCell id="37" style="edgeStyle=none;html=0;exitX=0.5;exitY=0;exitDx=0;exitDy=0;entryX=0.5;entryY=1;entryDx=0;entryDy=0;strokeWidth=5;fontColor=#FFFFFF;fillColor=#fa6800;strokeColor=#C73500;" parent="1" source="4" target="5" edge="1">
                    <mxGeometry relative="1" as="geometry"/>
                </mxCell>
                <mxCell id="38" style="edgeStyle=none;html=0;exitX=0.25;exitY=0;exitDx=0;exitDy=0;entryX=0.25;entryY=1;entryDx=0;entryDy=0;strokeWidth=5;fontColor=#FFFFFF;fillColor=#fa6800;strokeColor=#C73500;" parent="1" source="4" target="32" edge="1">
                    <mxGeometry relative="1" as="geometry"/>
                </mxCell>
                <mxCell id="39" style="edgeStyle=none;html=0;exitX=0.75;exitY=0;exitDx=0;exitDy=0;entryX=0.75;entryY=1;entryDx=0;entryDy=0;strokeWidth=5;fontColor=#FFFFFF;fillColor=#fa6800;strokeColor=#C73500;" parent="1" source="4" target="33" edge="1">
                    <mxGeometry relative="1" as="geometry"/>
                </mxCell>
                <mxCell id="4" value="Periodic Dispatcher" style="rounded=1;fontSize=16;fillColor=#e51400;fontColor=#ffffff;strokeColor=#B20000;" parent="1" vertex="1">
                    <mxGeometry x="522.5" y="600" width="195" height="60" as="geometry"/>
                </mxCell>
                <mxCell id="5" value="Server" style="rounded=1;fontSize=16;fillColor=#f0a30a;fontColor=#FFFFFF;strokeColor=#BD7000;" parent="1" vertex="1">
                    <mxGeometry x="520" y="400" width="200" height="60" as="geometry"/>
                </mxCell>
                <mxCell id="6" value="Encrypt" style="rounded=1;fontSize=16;fillColor=#f0a30a;fontColor=#FFFFFF;strokeColor=#BD7000;" parent="1" vertex="1">
                    <mxGeometry x="290" y="220" width="120" height="60" as="geometry"/>
                </mxCell>
                <mxCell id="7" value="Decrypt" style="rounded=1;fontSize=16;fillColor=#f0a30a;fontColor=#FFFFFF;strokeColor=#BD7000;" parent="1" vertex="1">
                    <mxGeometry x="840" y="220" width="120" height="60" as="geometry"/>
                </mxCell>
                <mxCell id="30" value="" style="shape=flexArrow;endArrow=classic;startArrow=classic;exitX=0;exitY=0;exitDx=0;exitDy=0;entryX=1;entryY=0.5;entryDx=0;entryDy=0;fillColor=#60a917;strokeColor=#2D7600;" parent="1" source="5" target="6" edge="1">
                    <mxGeometry width="100" height="100" relative="1" as="geometry">
                        <mxPoint x="670" y="480" as="sourcePoint"/>
                        <mxPoint x="770" y="380" as="targetPoint"/>
                    </mxGeometry>
                </mxCell>
                <mxCell id="31" value="" style="shape=flexArrow;endArrow=classic;startArrow=classic;exitX=1;exitY=0;exitDx=0;exitDy=0;entryX=0;entryY=0.5;entryDx=0;entryDy=0;fillColor=#60a917;strokeColor=#2D7600;" parent="1" source="5" target="7" edge="1">
                    <mxGeometry width="100" height="100" relative="1" as="geometry">
                        <mxPoint x="520" y="440" as="sourcePoint"/>
                        <mxPoint x="420" y="260" as="targetPoint"/>
                    </mxGeometry>
                </mxCell>
                <mxCell id="32" value="Telemetry" style="rounded=1;fontSize=16;fillColor=#f0a30a;fontColor=#FFFFFF;strokeColor=#BD7000;" parent="1" vertex="1">
                    <mxGeometry x="480" y="140" width="120" height="60" as="geometry"/>
                </mxCell>
                <mxCell id="33" value="Pixhawk" style="rounded=1;fontSize=16;fillColor=#f0a30a;fontColor=#FFFFFF;strokeColor=#BD7000;" parent="1" vertex="1">
                    <mxGeometry x="640" y="140" width="120" height="60" as="geometry"/>
                </mxCell>
                <mxCell id="34" value="" style="shape=flexArrow;endArrow=classic;startArrow=classic;exitX=0.25;exitY=0;exitDx=0;exitDy=0;entryX=0.5;entryY=1;entryDx=0;entryDy=0;fillColor=#60a917;strokeColor=#2D7600;" parent="1" source="5" target="32" edge="1">
                    <mxGeometry width="100" height="100" relative="1" as="geometry">
                        <mxPoint x="530" y="480" as="sourcePoint"/>
                        <mxPoint x="420" y="260" as="targetPoint"/>
                    </mxGeometry>
                </mxCell>
                <mxCell id="35" value="" style="shape=flexArrow;endArrow=classic;startArrow=classic;exitX=0.75;exitY=0;exitDx=0;exitDy=0;entryX=0.5;entryY=1;entryDx=0;entryDy=0;fillColor=#60a917;strokeColor=#2D7600;" parent="1" source="5" target="33" edge="1">
                    <mxGeometry width="100" height="100" relative="1" as="geometry">
                        <mxPoint x="740" y="430" as="sourcePoint"/>
                        <mxPoint x="630" y="210" as="targetPoint"/>
                    </mxGeometry>
                </mxCell>
                <mxCell id="40" value="&lt;font color=&quot;#000000&quot; style=&quot;font-size: 16px;&quot;&gt;Caption&lt;/font&gt;" style="swimlane;fontStyle=0;childLayout=stackLayout;horizontal=1;startSize=30;horizontalStack=0;resizeParent=1;resizeParentMax=0;resizeLast=0;collapsible=1;marginBottom=0;whiteSpace=wrap;html=1;" parent="1" vertex="1">
                    <mxGeometry x="180" y="430" width="200" height="120" as="geometry"/>
                </mxCell>
                <mxCell id="41" value="&lt;font color=&quot;#000000&quot;&gt;&lt;span style=&quot;font-size: 16px;&quot;&gt;Timer Callback&lt;/span&gt;&lt;/font&gt;" style="text;strokeColor=none;fillColor=none;align=left;verticalAlign=middle;spacingLeft=4;spacingRight=4;overflow=hidden;points=[[0,0.5],[1,0.5]];portConstraint=eastwest;rotatable=0;whiteSpace=wrap;html=1;" parent="40" vertex="1">
                    <mxGeometry y="30" width="200" height="30" as="geometry"/>
                </mxCell>
                <mxCell id="46" value="" style="edgeStyle=none;exitX=1;exitY=0;exitDx=0;exitDy=0;strokeWidth=3;fillColor=#1ba1e2;strokeColor=#006EAF;" parent="40" edge="1">
                    <mxGeometry relative="1" as="geometry">
                        <mxPoint x="140" y="44.49999999999994" as="sourcePoint"/>
                        <mxPoint x="180" y="44.49999999999994" as="targetPoint"/>
                    </mxGeometry>
                </mxCell>
                <mxCell id="47" value="" style="edgeStyle=none;exitX=1;exitY=0;exitDx=0;exitDy=0;strokeWidth=3;fillColor=#fa6800;strokeColor=#C73500;" parent="40" edge="1">
                    <mxGeometry relative="1" as="geometry">
                        <mxPoint x="140" y="74.5" as="sourcePoint"/>
                        <mxPoint x="180" y="74.5" as="targetPoint"/>
                    </mxGeometry>
                </mxCell>
                <mxCell id="44" value="&lt;font style=&quot;font-size: 16px;&quot; color=&quot;#000000&quot;&gt;RPC Call&lt;/font&gt;" style="text;strokeColor=none;fillColor=none;align=left;verticalAlign=middle;spacingLeft=4;spacingRight=4;overflow=hidden;points=[[0,0.5],[1,0.5]];portConstraint=eastwest;rotatable=0;whiteSpace=wrap;html=1;" parent="40" vertex="1">
                    <mxGeometry y="60" width="200" height="30" as="geometry"/>
                </mxCell>
                <mxCell id="48" value="" style="edgeStyle=none;exitX=1;exitY=0;exitDx=0;exitDy=0;strokeWidth=3;fillColor=#60a917;strokeColor=#2D7600;" parent="40" edge="1">
                    <mxGeometry relative="1" as="geometry">
                        <mxPoint x="140" y="104.5" as="sourcePoint"/>
                        <mxPoint x="180" y="104.5" as="targetPoint"/>
                    </mxGeometry>
                </mxCell>
                <mxCell id="45" value="&lt;font color=&quot;#000000&quot; style=&quot;font-size: 16px;&quot;&gt;Shared Data&lt;/font&gt;" style="text;strokeColor=none;fillColor=none;align=left;verticalAlign=middle;spacingLeft=4;spacingRight=4;overflow=hidden;points=[[0,0.5],[1,0.5]];portConstraint=eastwest;rotatable=0;whiteSpace=wrap;html=1;" parent="40" vertex="1">
                    <mxGeometry y="90" width="200" height="30" as="geometry"/>
                </mxCell>
            </root>
        </mxGraphModel>
    </diagram>
</mxfile>